<?xml version="1.0" encoding="UTF-8" standalone="no"?>
<!-- Created with Inkscape (http://www.inkscape.org/) -->

<svg
   xmlns:dc="http://purl.org/dc/elements/1.1/"
   xmlns:cc="http://creativecommons.org/ns#"
   xmlns:rdf="http://www.w3.org/1999/02/22-rdf-syntax-ns#"
   xmlns:svg="http://www.w3.org/2000/svg"
   xmlns="http://www.w3.org/2000/svg"
   xmlns:sodipodi="http://sodipodi.sourceforge.net/DTD/sodipodi-0.dtd"
   xmlns:inkscape="http://www.inkscape.org/namespaces/inkscape"
   width="744.09448819"
   height="1052.3622047"
   id="svg2"
   version="1.1"
   inkscape:version="0.48.0 r9654"
   sodipodi:docname="New document 1">
  <defs
     id="defs4" />
  <sodipodi:namedview
     id="base"
     pagecolor="#ffffff"
     bordercolor="#666666"
     borderopacity="1.0"
     inkscape:pageopacity="0.0"
     inkscape:pageshadow="2"
     inkscape:zoom="3.5102269"
     inkscape:cx="312.3626"
     inkscape:cy="448.19231"
     inkscape:document-units="px"
     inkscape:current-layer="layer1"
     showgrid="false"
     inkscape:window-width="1280"
     inkscape:window-height="738"
     inkscape:window-x="-8"
     inkscape:window-y="-8"
     inkscape:window-maximized="1" />
  <metadata
     id="metadata7">
    <rdf:RDF>
      <cc:Work
         rdf:about="">
        <dc:format>image/svg+xml</dc:format>
        <dc:type
           rdf:resource="http://purl.org/dc/dcmitype/StillImage" />
        <dc:title></dc:title>
      </cc:Work>
    </rdf:RDF>
  </metadata>
  <g
     inkscape:label="Layer 1"
     inkscape:groupmode="layer"
     id="layer1">
    <path
       style="fill:none;stroke:#000000;stroke-width:1.7766;stroke-miterlimit:5"
       inkscape:connector-curvature="0"
       id="path4178"
       stroke-miterlimit="5"
       d="m 248.62222,568.97765 h 14.087 l 1.949,-5.541 3.189,10.668 3.544,-10.807 3.101,10.668 3.367,-10.529 3.367,10.599 1.861,-5.196 h 14.177" />
    <path
       style="fill:none;stroke:#000000;stroke-width:1.7766;stroke-miterlimit:5"
       inkscape:connector-curvature="0"
       id="path4178-7"
       stroke-miterlimit="5"
       d="m 299.64434,568.87556 h 14.087 l 1.949,-5.541 3.189,10.668 3.544,-10.807 3.101,10.668 3.367,-10.529 3.367,10.599 1.861,-5.196 h 14.177" />
    <path
       style="fill:none;stroke:#000000;stroke-width:1.7766;stroke-miterlimit:5"
       inkscape:connector-curvature="0"
       id="path4178-4"
       stroke-miterlimit="5"
       d="m 299.11076,568.80837 0,14.087 5.541,1.949 -10.668,3.189 10.807,3.544 -10.668,3.101 10.529,3.367 -10.599,3.367 5.196,1.861 0,14.177" />
    <path
       style="fill:none;stroke:#000000;stroke-width:1.7766;stroke-miterlimit:5"
       inkscape:connector-curvature="0"
       id="path4178-4-0"
       stroke-miterlimit="5"
       d="m 347.97501,567.88701 0,14.087 5.541,1.949 -10.668,3.189 10.807,3.544 -10.668,3.101 10.529,3.367 -10.599,3.367 5.196,1.861 0,14.177" />
    <path
       sodipodi:type="arc"
       style="fill:#000000;fill-opacity:1;fill-rule:evenodd;stroke:#000000;stroke-width:1px;stroke-linecap:butt;stroke-linejoin:miter;stroke-opacity:1"
       id="path3226"
       sodipodi:cx="299.09976"
       sodipodi:cy="567.23975"
       sodipodi:rx="3.4848669"
       sodipodi:ry="3.4848669"
       d="m 302.58463,567.23975 a 3.4848669,3.4848669 0 1 1 -6.96973,0 3.4848669,3.4848669 0 1 1 6.96973,0 z"
       transform="matrix(0.85653878,0,0,0.85653878,43.252221,82.863259)" />
    <path
       sodipodi:type="arc"
       style="fill:#000000;fill-opacity:1;fill-rule:evenodd;stroke:#000000;stroke-width:1px;stroke-linecap:butt;stroke-linejoin:miter;stroke-opacity:1"
       id="path3226-9"
       sodipodi:cx="299.09976"
       sodipodi:cy="567.23975"
       sodipodi:rx="3.4848669"
       sodipodi:ry="3.4848669"
       d="m 302.58463,567.23975 a 3.4848669,3.4848669 0 1 1 -6.96973,0 3.4848669,3.4848669 0 1 1 6.96973,0 z"
       transform="matrix(0.85653878,0,0,0.85653878,42.792428,129.92497)" />
    <path
       style="fill:none;stroke:#000000;stroke-width:1.7766;stroke-miterlimit:5"
       inkscape:connector-curvature="0"
       id="path4178-2"
       stroke-miterlimit="5"
       d="m 299.58969,615.91478 c 0,0 48.20418,-0.29604 48.642,-0.138"
       sodipodi:nodetypes="cc" />
    <path
       style="fill:none;stroke:#000000;stroke-width:1.7766;stroke-miterlimit:5"
       inkscape:connector-curvature="0"
       id="path4178-2-2"
       stroke-miterlimit="5"
       d="m 248.88071,615.86452 c 0,0 48.20418,-0.29604 48.642,-0.138"
       sodipodi:nodetypes="cc" />
    <path
       sodipodi:type="arc"
       style="fill:#ffffff;fill-opacity:1;fill-rule:evenodd;stroke:#000000;stroke-width:1px;stroke-linecap:butt;stroke-linejoin:miter;stroke-opacity:1"
       id="path3226-0"
       sodipodi:cx="299.09976"
       sodipodi:cy="567.23975"
       sodipodi:rx="3.4848669"
       sodipodi:ry="3.4848669"
       d="m 302.58463,567.23975 a 3.4848669,3.4848669 0 1 1 -6.96973,0 3.4848669,3.4848669 0 1 1 6.96973,0 z"
       transform="matrix(0.85653878,0,0,0.85653878,-8.9130844,82.769933)" />
    <path
       sodipodi:type="arc"
       style="fill:#ffffff;fill-opacity:1;fill-rule:evenodd;stroke:#000000;stroke-width:1px;stroke-linecap:butt;stroke-linejoin:miter;stroke-opacity:1"
       id="path3226-0-9"
       sodipodi:cx="299.09976"
       sodipodi:cy="567.23975"
       sodipodi:rx="3.4848669"
       sodipodi:ry="3.4848669"
       d="m 302.58463,567.23975 a 3.4848669,3.4848669 0 1 1 -6.96973,0 3.4848669,3.4848669 0 1 1 6.96973,0 z"
       transform="matrix(0.85653878,0,0,0.85653878,-7.7793841,129.31056)" />
    <text
       xml:space="preserve"
       style="font-size:40px;font-style:normal;font-weight:normal;line-height:125%;letter-spacing:0px;word-spacing:0px;fill:#000000;fill-opacity:1;stroke:none;font-family:Sans"
       x="308.24219"
       y="595.41168"
       id="text4104"
       sodipodi:linespacing="125%"><tspan
         sodipodi:role="line"
         id="tspan4106"
         x="308.24219"
         y="595.41168"
         style="font-size:13px">R<tspan
   style="font-size:65.00091553%;baseline-shift:sub"
   id="tspan4108">1</tspan></tspan></text>
    <text
       xml:space="preserve"
       style="font-size:40px;font-style:normal;font-weight:normal;line-height:125%;letter-spacing:0px;word-spacing:0px;fill:#000000;fill-opacity:1;stroke:none;font-family:Sans"
       x="265.84964"
       y="556.03223"
       id="text4104-8"
       sodipodi:linespacing="125%"><tspan
         sodipodi:role="line"
         id="tspan4106-7"
         x="265.84964"
         y="556.03223"
         style="font-size:13px">R<tspan
   style="font-size:65.00091553%;baseline-shift:sub"
   id="tspan4108-7">1</tspan></tspan></text>
    <text
       xml:space="preserve"
       style="font-size:40px;font-style:normal;font-weight:normal;line-height:125%;letter-spacing:0px;word-spacing:0px;fill:#000000;fill-opacity:1;stroke:none;font-family:Sans"
       x="317.983"
       y="556.60199"
       id="text4104-8-6"
       sodipodi:linespacing="125%"><tspan
         sodipodi:role="line"
         id="tspan4106-7-3"
         x="317.983"
         y="556.60199"
         style="font-size:13px">R<tspan
   style="font-size:65.00091553%;baseline-shift:sub"
   id="tspan4108-7-8">1</tspan></tspan></text>
    <text
       xml:space="preserve"
       style="font-size:40px;font-style:normal;font-weight:normal;line-height:125%;letter-spacing:0px;word-spacing:0px;fill:#000000;fill-opacity:1;stroke:none;font-family:Sans"
       x="359.57574"
       y="596.20056"
       id="text4104-8-0"
       sodipodi:linespacing="125%"><tspan
         sodipodi:role="line"
         id="tspan4106-7-8"
         x="359.57574"
         y="596.20056"
         style="font-size:13px">R<tspan
   style="font-size:65%;baseline-shift:sub"
   id="tspan4169">0</tspan></tspan></text>
  </g>
</svg>
